# xmcd
#
# Track frame offsets:
#	150
#	11597
#	25614
#	41475
#	55322
#	68599
#	82143
#	99766
#	113792
#	133544
#	147672
#	161035
#	175943
#	190529
#	203976
#
# Disc length: 2891 seconds
#
# Revision: 1
# Processed by: cddbd v1.4PL0 Copyright (c) Steve Scherf et al.
# Submitted via: CDmax 1.8
#
DISCID=c60b490f
DTITLE=John Lee Hooker - Past Perfect, Disc Seven: Women and Money
DYEAR=1900
DGENRE=Blues
TTITLE0=Please Don't Go
TTITLE1=I Don't Want Your Money
TTITLE2=Hey Baby
TTITLE3=Bluebird
TTITLE4=Walkin' the Boogie
TTITLE5=Love Blues
TTITLE6=Lonely Boy Boogie
TTITLE7=Apologize
TTITLE8=The Journey
TTITLE9=Worried Life Blues
TTITLE10=Down at the Landing
TTITLE11=You Have Two Hearts
TTITLE12=Blues for Big Town
TTITLE13=Women and Money
TTITLE14=Rock House Boogie
EXTD=
EXTT0=
EXTT1=
EXTT2=
EXTT3=
EXTT4=
EXTT5=
EXTT6=
EXTT7=
EXTT8=
EXTT9=
EXTT10=
EXTT11=
EXTT12=
EXTT13=
EXTT14=
PLAYORDER=
